HIERARCHY
ROOT Hips
{
	OFFSET	0.00	0.00	0.00
	CHANNELS 6 Xposition Yposition Zposition Zrotation Xrotation Yrotation
	JOINT Spine
	{
		OFFSET	 0.00	0.01	 0.00
		CHANNELS 3 Zrotation Xrotation Yrotation
		JOINT Spine1
		{
			OFFSET	 0.00	 2.45913012437421	 0.00
			CHANNELS 3 Zrotation Xrotation Yrotation
            JOINT Neck
            {
                OFFSET	 0.00	 2.48462964506057	 0.00
                CHANNELS 3 Zrotation Xrotation Yrotation
                JOINT Head
                {
                    OFFSET	 0.00	 0.927524780924562	 0.00
                    CHANNELS 3 Zrotation Xrotation Yrotation
                    End Site 
                    {
                        OFFSET	 0.00	 1.14999962169752	 0.00
                    }
                }
            }
			JOINT LeftShoulder
			{
				OFFSET	 0.00	 2.48462964506057	 0.00
				CHANNELS 3 Zrotation Xrotation Yrotation
				JOINT LeftUpArm
				{
					OFFSET	 0.00	 1.24881979654096	 0.00
					CHANNELS 3 Zrotation Xrotation Yrotation
					JOINT LeftForeArm
					{
						OFFSET	 0.00	2.59758046908119	 0.00
						CHANNELS 3 Zrotation Xrotation Yrotation
						JOINT LeftHand
						{
							OFFSET	 0.00	2.45542024364365	 0.00
							CHANNELS 3 Zrotation Xrotation Yrotation
							JOINT LeftHandThumb 
							{
								OFFSET	 0.00	0.00	 0.00
								CHANNELS 3 Zrotation Xrotation Yrotation
								End Site
								{
									OFFSET	 0.00	0.00	1.00000003353624
								}
							}
							JOINT L_Wrist_End 
							{
								OFFSET	 0.00	0.99999967115358	 0.00
								CHANNELS 3 Zrotation Xrotation Yrotation
								End Site 
								{
									OFFSET	 0.00	 0.00	 0.00
								}
							}
						}
					}
				}
			}
			JOINT RightShoulder
			{
				OFFSET	 0.00	 2.48462964506057	 0.00
				CHANNELS 3 Zrotation Xrotation Yrotation
				JOINT RightUpArm
				{
					OFFSET	 0.00	 1.24881979654096	 0.00
					CHANNELS 3 Zrotation Xrotation Yrotation
					JOINT RightForeArm
					{
						OFFSET	 0.00	2.59758046908119	 0.00
						CHANNELS 3 Zrotation Xrotation Yrotation
						JOINT RightHand
						{
							OFFSET	 0.00	2.45542024364365	 0.00
							CHANNELS 3 Zrotation Xrotation Yrotation
							JOINT RightHandThumb 
							{
								OFFSET	 0.00	0.00	 0.00
								CHANNELS 3 Zrotation Xrotation Yrotation
								End Site
								{
									OFFSET	 0.00	0.00	1.00000003353624
								}
							}
							JOINT R_Wrist_End 
							{
								OFFSET	 0.00	0.99999967115358	 0.00
								CHANNELS 3 Zrotation Xrotation Yrotation
								End Site 
								{
									OFFSET	 0.00	 0.00	 0.00
								}
							}
						}
					}
				}
			}
		}
	}
	JOINT LeftUpLeg
	{
		OFFSET	 1.2719394002717	 0.00	 0.00
		CHANNELS 3 Zrotation Xrotation Yrotation
		JOINT LeftLowLeg
		{
			OFFSET	 0.00	-4.3429100912261	 0.00
			CHANNELS 3 Zrotation Xrotation Yrotation
			JOINT LeftFoot
			{
				OFFSET	 0.00	-4.48767017425826	 0.00
				CHANNELS 3 Zrotation Xrotation Yrotation
				JOINT LeftToeBase
                {
                    OFFSET	 0.00	0.00	 1.51507020887566
                    CHANNELS 3 Zrotation Xrotation Yrotation
                    End Site 
                    {
                        OFFSET	 0.00	0.00	 0.75000010571191
                    }
                }
			}
		}
	}
	JOINT RightUpLeg
	{
		OFFSET	 -1.2719393604653	 0.00	 0.00
		CHANNELS 3 Zrotation Xrotation Yrotation
		JOINT RightLowLeg
		{
			OFFSET	 0.00	-4.3429100912261	 0.00
			CHANNELS 3 Zrotation Xrotation Yrotation
			JOINT RightFoot
			{
				OFFSET	 0.00	-4.48767017425826	 0.00
				CHANNELS 3 Zrotation Xrotation Yrotation
				JOINT RightToeBase
                {
                    OFFSET	 0.00	0.00	 1.51507020887566
                    CHANNELS 3 Zrotation Xrotation Yrotation
                    End Site 
                    {
                        OFFSET	 0.00	0.00	 0.749999965609858
                    }
                }   
			}
		}
	}
}
MOTION 
Frames:	13 
Frame Time: 0.02 
  -4.82593994140625 2.0063299560546874 9.575750122070312 -131.356 83.0763 135.535 5.89963 -8.04632 -5.43766 22.938 20.0606 -6.86422 -12.1849 30.1153 5.63444 -0.740777 -43.2716 -8.04868 -106.2768 -7.50178 1.28138 -45.9145 -4.24358 44.4708 0.0 80.39 0.0 27.9578 -8.35521 8.97679 0.0 0.0 0.0 0.0 0.0 0.0 112.0717 -1.22922 -4.56064 32.476 10.108 -2.39598 0.0 24.1451 0.0 -11.0084 -3.5239 9.52434 0.0 0.0 0.0 0.0 0.0 0.0 -0.753633 -10.4355 -0.354564 0.0 19.0865 0.0 19.2876 1.8776999 -1.36782 0.0 -35.1681 0.0 5.76502 -20.9776 2.00987 0.0 57.8744 0.0 17.8582 11.96091 -6.27382 0.0 -28.7717 0.0 
  -4.817319946289063 1.8723899841308593 9.5835302734375 -129.756 83.0103 133.84 6.07038 -7.76205 -5.52299 23.1258 19.9206 -6.94823 -12.6444 29.9017 6.15257 -0.913481 -43.3969 -8.31149 -106.5585 -7.46731 0.105803 -45.7089 -4.76976 44.835 0.0 80.8626 0.0 27.8193 -8.43344 9.50994 0.0 0.0 0.0 0.0 0.0 0.0 112.0645 -1.29121 -3.45186 32.5005 9.60711 -3.22918 0.0 24.1276 0.0 -10.893 -3.84544 9.16058 0.0 0.0 0.0 0.0 0.0 0.0 -0.580036 -9.08178 -0.418909 0.0 18.3064 0.0 19.3741 1.6195002 -0.992882 0.0 -35.1655 0.0 5.89979 -21.8546 2.23462 0.0 55.0593 0.0 15.6038 9.92882 -6.23513 0.0 -28.2832 0.0 
  -4.8101199340820315 1.7418499755859376 9.587880249023437 -130.098 82.7378 134.083 6.16449 -7.63526 -5.65025 23.5376 19.7554 -7.03634 -13.2841 29.4444 6.89177 -1.24414 -43.3808 -8.75557 -107.018 -7.60593 -0.0662394 -45.4228 -4.42596 44.7123 0.0 81.3973 0.0 28.0547 -8.42837 9.22012 0.0 0.0 0.0 0.0 0.0 0.0 112.0465 -2.3589 -4.37205 31.9353 11.6824 -3.52284 0.0 23.4981 0.0 -10.808 -3.85278 9.82858 0.0 0.0 0.0 0.0 0.0 0.0 -0.4358 -8.0735 -0.612867 0.0 17.5588 0.0 19.373 1.3626003 -0.530954 0.0 -35.1799 0.0 5.93933 -22.9757 2.4115 0.0 51.7879 0.0 14.8188 8.70068 -6.16134 0.0 -27.763401 0.0 
  -4.804939880371093 1.61552001953125 9.587219848632813 -132.516 82.3256 136.421 6.20541 -7.82574 -5.83131 23.7778 19.3105 -7.08584 -13.7804 29.8657 7.31235 -1.4618 -43.5033 -8.69644 -107.1068 -7.43299 0.996228 -45.528 -3.66811 43.7434 0.0 81.7557 0.0 28.4848 -8.39645 8.7588 0.0 0.0 0.0 0.0 0.0 0.0 111.6079 -0.819845 -4.14458 32.3117 9.40824 -2.87826 0.0 24.3204 0.0 -10.7977 -3.6669 9.06956 0.0 0.0 0.0 0.0 0.0 0.0 -0.367677 -7.42969 -0.743523 0.0 16.8953 0.0 19.3397 1.0493002 -0.192567 0.0 -35.1651 0.0 5.7713 -24.3246 2.42595 0.0 48.1937 0.0 14.7114 8.131821 -6.03759 0.0 -28.061901 0.0 
  -4.798789978027344 1.4865400695800781 9.58281005859375 -133.2 82.2306 137.004 6.26916 -7.6459 -5.91027 24.04 19.2892 -7.16928 -14.2926 29.2815 7.96829 -1.77927 -43.3472 -9.11381 -107.4593 -7.62867 -0.0677806 -45.2189 -3.9488 44.1354 0.0 82.4 0.0 28.2612 -8.37404 9.32457 0.0 0.0 0.0 0.0 0.0 0.0 111.5633 -1.30434 -3.46466 32.1101 9.81725 -3.77992 0.0 24.0608 0.0 -10.7747 -3.84798 9.23512 0.0 0.0 0.0 0.0 0.0 0.0 -0.360048 -6.37285 -0.7161 0.0 16.2087 0.0 19.3803 0.7209997 0.0802054 0.0 -35.194 0.0 5.4002 -25.1067 2.10852 0.0 44.0541 0.0 14.5193 8.14518 -6.00681 0.0 -27.7272 0.0 
  -4.793469848632813 1.3592999267578125 9.576270141601562 -135.432 81.93 139.119 6.34326 -7.79058 -6.00583 24.2703 19.2525 -7.26612 -14.7751 29.1199 8.50294 -2.1181 -43.4053 -9.28489 -107.6847 -7.53412 -0.531498 -45.1172 -4.20689 43.9155 0.0 82.9729 0.0 28.0988 -8.29351 9.45709 0.0 0.0 0.0 0.0 0.0 0.0 111.3195 -0.823022 -2.99413 32.164 9.06578 -3.86547 0.0 24.3214 0.0 -10.7692 -4.03756 8.99152 0.0 0.0 0.0 0.0 0.0 0.0 -0.381221 -5.68255 -0.659398 0.0 15.6304 0.0 19.4784 0.42240047 0.356593 0.0 -35.314697 0.0 5.00978 -26.0137 1.78881 0.0 39.6143 0.0 13.9132 8.5989895 -5.80896 0.0 -27.687 0.0 
  -4.787879943847656 1.234010009765625 9.56530029296875 -138.4 81.6028 141.987 6.43946 -7.98947 -6.02165 24.4215 19.3406 -7.32432 -15.262 28.5283 9.16121 -2.40962 -43.2224 -9.67456 -107.9355 -7.64634 -0.502742 -44.9749 -3.75877 43.5422 0.0 83.5108 0.0 28.2785 -8.1874 9.66024 0.0 0.0 0.0 0.0 0.0 0.0 111.3664 -1.89531 -4.37316 31.4862 11.5777 -3.56012 0.0 23.4912 0.0 -10.7838 -3.86893 9.91437 0.0 0.0 0.0 0.0 0.0 0.0 -0.526816 -5.12031 -0.87036 0.0 15.0951 0.0 19.4908 0.16880035 0.795804 0.0 -35.283897 0.0 4.50187 -26.8619 1.43473 0.0 34.8269 0.0 13.4341 9.350121 -5.3263 0.0 -27.8916 0.0 
  -4.788099975585937 1.1044100189208985 9.551939697265626 -141.683 81.2602 145.025 6.44279 -8.23656 -5.98201 24.4975 19.1114 -7.19316 -15.5606 28.8933 9.37206 -2.56399 -43.3582 -9.54226 -107.8937 -7.36365 0.692385 -45.2059 -3.07747 42.4203 0.0 83.7931 0.0 28.7607 -8.05754 9.43894 0.0 0.0 0.0 0.0 0.0 0.0 111.112305 -0.534277 -4.29685 31.6205 9.57557 -2.70554 0.0 24.1327 0.0 -10.8288 -3.72169 9.2419 0.0 0.0 0.0 0.0 0.0 0.0 -0.672455 -4.54983 -0.774887 0.0 14.5369 0.0 19.4778 -0.11530018 1.06454 0.0 -35.4037 0.0 4.13145 -27.5266 1.50722 0.0 29.7763 0.0 12.6003 10.30593 -4.72846 0.0 -27.975399 0.0 
  -4.790719909667969 0.970282974243164 9.536300048828124 -142.885 81.3786 146.065 6.33862 -7.96859 -6.0246 24.7579 19.2756 -7.25936 -15.8574 28.4024 9.83652 -2.92646 -43.226 -9.7158 -108.1157 -7.54905 -0.682605 -45.0987 -3.8593 42.9915 0.0 84.4076 0.0 28.7364 -8.26017 9.78274 0.0 0.0 0.0 0.0 0.0 0.0 110.8776 -0.16359 -2.6868 31.8706 8.43793 -3.42679 0.0 24.2383 0.0 -10.7038 -3.92864 9.13004 0.0 0.0 0.0 0.0 0.0 0.0 -0.810941 -3.51573 -0.509859 0.0 14.2209 0.0 19.5517 -0.5205002 1.16953 0.0 -35.501602 0.0 3.79588 -27.3197 1.94976 0.0 24.367 0.0 12.3649 11.60545 -3.97941 0.0 -28.3726 0.0 
  -4.797269897460938 0.8346150207519532 9.517150268554687 -145.84 81.1213 148.937 6.27494 -8.13823 -6.04688 24.8944 19.1604 -7.21748 -16.2658 28.4763 10.2232 -3.04804 -43.2708 -9.80238 -108.1006 -7.4763 0.474452 -45.2861 -3.11826 42.0296 0.0 84.7194 0.0 29.1034 -8.22528 9.28476 0.0 0.0 0.0 0.0 0.0 0.0 110.8591 -0.272446 -4.29426 31.39 9.47096 -2.28983 0.0 23.9953 0.0 -10.866 -3.67704 9.20087 0.0 0.0 0.0 0.0 0.0 0.0 -0.953554 -3.09561 -0.343879 0.0 14.2053 0.0 19.5142 -1.0048008 1.22323 0.0 -35.701 0.0 3.51048 -27.4112 2.98594 0.0 19.0968 0.0 12.6777 12.7333 -3.3377 0.0 -28.621101 0.0 
  -4.806740112304688 0.6915910339355469 9.49614990234375 -146.185 81.3963 149.345 6.28681 -7.84119 -6.05449 25.0006 19.4269 -7.31971 -16.3472 28.1011 10.3982 -3.34001 -43.2579 -9.95045 -108.2217 -7.50853 -0.818132 -45.1403 -3.94015 42.6412 0.0 85.2885 0.0 28.9315 -8.40013 9.82801 0.0 0.0 0.0 0.0 0.0 0.0 110.8022 -0.172712 -2.59426 31.6004 8.50226 -3.18894 0.0 24.0155 0.0 -10.9233 -3.5863 8.72109 0.0 0.0 0.0 0.0 0.0 0.0 -1.01981 -2.13882 -0.159859 0.0 14.5096 0.0 19.5741 -1.6044998 1.26531 0.0 -35.9504 0.0 3.24768 -26.6768 4.05998 0.0 14.0979 0.0 12.8462 13.67975 -2.79276 0.0 -28.2969 0.0 
  -4.819169921875 0.5444960021972656 9.4739599609375 -147.119 81.5381 150.623 6.28717 -7.81789 -6.11676 25.1722 19.8119 -7.51635 -16.5239 27.4862 10.6948 -3.58768 -43.1759 -10.3713 -108.3981 -7.65766 -0.91779 -44.9141 -3.61152 42.7024 0.0 85.7747 0.0 28.8854 -8.38239 9.94201 0.0 0.0 0.0 0.0 0.0 0.0 111.0555 -1.84753 -4.03935 30.8399 11.6802 -2.89331 0.0 23.0344 0.0 -11.0428 -3.63263 9.26957 0.0 0.0 0.0 0.0 0.0 0.0 -1.09537 -1.48929 -0.379612 0.0 15.0762 0.0 19.5634 -2.1443996 1.41 0.0 -36.3105 0.0 2.87609 -25.9768 4.97396 0.0 9.73226 0.0 12.9202 13.69273 -2.21691 0.0 -28.1534 0.0 
  -4.834299926757812 0.39111000061035156 9.44885009765625 -147.941 81.7783 152.008 6.30564 -7.78984 -6.2527 25.1622 19.7902 -7.66964 -16.4716 27.8288 10.4751 -3.71109 -43.374 -10.2477 -108.3445 -7.3802 -0.50052 -44.8644 -3.50837 42.5054 0.0 86.1257 0.0 28.9751 -8.36359 10.1154 0.0 0.0 0.0 0.0 0.0 0.0 110.871 -0.466919 -2.54377 31.3953 8.60354 -2.60454 0.0 23.9004 0.0 -11.1238 -3.3936 8.61816 0.0 0.0 0.0 0.0 0.0 0.0 -1.18595 -0.850659 -0.891822 0.0 15.875 0.0 19.5541 -2.6585999 1.63424 0.0 -36.8127 0.0 2.43292 -25.2202 5.51011 0.0 6.50916 0.0 12.9223 12.43909 -1.44038 0.0 -28.3498 0.0 
